<svg xmlns="http://www.w3.org/2000/svg" viewBox="0 0 44 44" width="44" height="44">
  <!-- Central Microphone Capsule in Amber -->
  <rect x="17" y="7" width="10" height="17" rx="5" ry="5" fill="#F59E0B" />
  
  <!-- Cradle Arc -->
  <path d="M 12.5, 18.5 C 12.5, 25 16.5, 28 22, 28 C 27.5, 28 31.5, 25 31.5, 18.5"
        fill="none" stroke="#F59E0B" stroke-width="2.6" stroke-linecap="round" />
        
  <!-- Stem & Base Foot -->
  <line x1="22" y1="28" x2="22" y2="34" stroke="#F59E0B" stroke-width="2.6" stroke-linecap="round" />
  <line x1="16" y1="34" x2="28" y2="34" stroke="#F59E0B" stroke-width="2.6" stroke-linecap="round" />

  <!-- Acoustic Dialogue Waves -->
  <path d="M 7.5, 14 C 5.5, 17.5 5.5, 22.5 7.5, 26"
        fill="none" stroke="#F59E0B" stroke-width="2.3" stroke-linecap="round" />
  <path d="M 36.5, 14 C 38.5, 17.5 38.5, 22.5 36.5, 26"
        fill="none" stroke="#F59E0B" stroke-width="2.3" stroke-linecap="round" />

  <!-- Pause Indicator Badge -->
  <circle cx="35" cy="7.5" r="5.5" fill="#92400E" />
  <circle cx="35" cy="7.5" r="4.2" fill="#F59E0B" />
  <rect x="33.2" y="5.8" width="1.4" height="3.4" fill="#131620" rx="0.5" />
  <rect x="35.4" y="5.8" width="1.4" height="3.4" fill="#131620" rx="0.5" />
</svg>
